<svg xmlns="http://www.w3.org/2000/svg" viewBox="0 0 110 110">
  <defs>
    <linearGradient id="a" x1="12.96" y1="12.78" x2="56.17" y2="56.42" gradientUnits="userSpaceOnUse">
      <stop offset="0" stop-color="#387eb8"/>
      <stop offset="1" stop-color="#366994"/>
    </linearGradient>
    <linearGradient id="b" x1="53.83" y1="53.58" x2="97.04" y2="97.22" gradientUnits="userSpaceOnUse">
      <stop offset="0" stop-color="#ffc836"/>
      <stop offset="1" stop-color="#f0c040"/>
    </linearGradient>
  </defs>
  <path d="M54.5 4C30.3 4 32.2 14.6 32.2 14.6l.03 11h22.73v3.3H21.56S4 26.9 4 51.3s15.33 23.5 15.33 23.5h9.15V63.1s-.5-15.3 15.1-15.3h26c0 0 14.6.24 14.6-14.1V14.9S87 4 54.5 4zm-14.4 6.3c2.6 0 4.7 2.1 4.7 4.7s-2.1 4.7-4.7 4.7-4.7-2.1-4.7-4.7 2.1-4.7 4.7-4.7z" fill="url(#a)"/>
  <path d="M55.5 106c24.2 0 22.3-10.6 22.3-10.6l-.03-11H55.04v-3.3h33.4S106 83.1 106 58.7 90.67 35.2 90.67 35.2h-9.15v11.7s.5 15.3-15.1 15.3h-26c0 0-14.6-.24-14.6 14.1v18.8S23 106 55.5 106zm14.4-6.3c-2.6 0-4.7-2.1-4.7-4.7s2.1-4.7 4.7-4.7 4.7 2.1 4.7 4.7-2.1 4.7-4.7 4.7z" fill="url(#b)"/>
</svg>
